<svg width="41" height="23" viewBox="0 0 41 23" fill="none" xmlns="http://www.w3.org/2000/svg">
<path fill-rule="evenodd" clip-rule="evenodd" d="M40.44 0.689697C40.44 12.6843 31.9758 22.4097 20.22 22.4097C7.947 22.4085 0 12.6843 0 0.689697H40.44ZM9.7872 9.0693C10.2025 9.0693 10.6086 8.94614 10.9539 8.71538C11.2992 8.48463 11.5684 8.15666 11.7273 7.77293C11.8863 7.38921 11.9279 6.96697 11.8468 6.55961C11.7658 6.15225 11.5658 5.77806 11.2721 5.48437C10.9784 5.19068 10.6042 4.99068 10.1969 4.90965C9.78953 4.82862 9.36729 4.87021 8.98357 5.02915C8.59984 5.18809 8.27186 5.45726 8.04111 5.8026C7.81036 6.14794 7.6872 6.55396 7.6872 6.9693C7.6872 7.52625 7.90845 8.0604 8.30228 8.45422C8.6961 8.84805 9.23025 9.0693 9.7872 9.0693ZM18.1224 6.9693C18.1224 7.38464 17.9992 7.79065 17.7685 8.136C17.5377 8.48134 17.2098 8.7505 16.826 8.90944C16.4423 9.06839 16.0201 9.10998 15.6127 9.02895C15.2053 8.94792 14.8312 8.74791 14.5375 8.45422C14.2438 8.16053 14.0438 7.78635 13.9628 7.37899C13.8817 6.97163 13.9233 6.54939 14.0823 6.16566C14.2412 5.78194 14.5104 5.45396 14.8557 5.22321C15.201 4.99246 15.6071 4.8693 16.0224 4.8693C16.5791 4.86993 17.1129 5.09163 17.5062 5.48565C17.8995 5.87966 18.1203 6.41375 18.12 6.9705L18.1224 6.9693ZM22.2594 9.0693C22.6747 9.0693 23.0808 8.94614 23.4261 8.71538C23.7714 8.48463 24.0406 8.15666 24.1995 7.77293C24.3585 7.38921 24.4001 6.96697 24.3191 6.55961C24.238 6.15225 24.038 5.77806 23.7443 5.48437C23.4506 5.19068 23.0765 4.99068 22.6691 4.90965C22.2617 4.82862 21.8395 4.87021 21.4558 5.02915C21.072 5.18809 20.7441 5.45726 20.5133 5.8026C20.2826 6.14794 20.1594 6.55396 20.1594 6.9693C20.1594 7.24512 20.2137 7.51825 20.3193 7.77307C20.4249 8.02789 20.5796 8.25942 20.7747 8.45443C20.9698 8.64945 21.2013 8.80412 21.4562 8.90962C21.711 9.01512 21.9842 9.06938 22.26 9.0693H22.2594Z" fill="#00311D"/>
</svg>
